<?xml version="1.0" encoding="utf-8"?>
<!-- Generator: Adobe Illustrator 18.1.0, SVG Export Plug-In . SVG Version: 6.00 Build 0)  -->
<svg version="1.1" id="Layer_1" xmlns="http://www.w3.org/2000/svg" xmlns:xlink="http://www.w3.org/1999/xlink" x="0px" y="0px"
	 viewBox="-721 472.3 56.7 56.7" enable-background="new -721 472.3 56.7 56.7" xml:space="preserve">
<path fill="#1DCEC5" d="M-667.8,486.9L-667.8,486.9L-667.8,486.9v-1.2c0-2.2-1.8-4.1-4.1-4.1l0,0l0,0l0,0h-41.7l0,0l0,0
	c-2.2,0-4.1,1.8-4.1,4.1v27.9c0,2.2,1.8,4.1,4.1,4.1h1.5h38.7v0c4.3,0,5.6-1.1,5.7-4.1L-667.8,486.9z M-675,482.6l-17.9,13.2
	l-17.8-13.2H-675z M-711.1,492.9l16.6,11.4l0,0l-16.6,11.5L-711.1,492.9z M-710.7,516.7l17-11.8l0.3,0.2c0.2,0.1,0.4,0.2,0.6,0.2
	c0.2,0,0.9-0.4,0.9-0.4l17,11.8C-674.9,516.7-710.7,516.7-710.7,516.7z M-674.5,515.8l-16.6-11.5l9.2-6.4l7.3-5V515.8z"/>
</svg>
